<svg id="Layer_1" enable-background="new 0 0 511.999 511.999" height="512" viewBox="0 0 511.999 511.999" width="512" xmlns="http://www.w3.org/2000/svg"><g><g><g clip-rule="evenodd" fill-rule="evenodd"><path d="m225.999 166h-196c-11 0-20 8.999-20 20v240c0 11 9 20 20 20h452c11 0 20-8.999 20-20v-240.001c0-11-9-20-20-20h-195.999-60.001z" fill="#ccf5fc"/><path d="m225.999 146v20h60v-20c0-11-9-20-20-20h-20.001c-10.999 0-19.999 9-19.999 20z" fill="#ccf5fc"/><path d="m66 236.001h20c5.523 0 10-4.477 10-10v-20c0-5.523-4.477-10-10-10h-20c-5.523 0-10 4.477-10 10v20c0 5.523 4.477 10 10 10z" fill="#99ebfa"/><path d="m126 236.001h20c5.523 0 10-4.477 10-10v-20c0-5.523-4.477-10-10-10h-20c-5.523 0-10 4.477-10 10v20c0 5.523 4.477 10 10 10z" fill="#99ebfa"/><path d="m186 236.001h20c5.523 0 10-4.477 10-10v-20c0-5.523-4.477-10-10-10h-20c-5.523 0-10 4.477-10 10v20c0 5.523 4.477 10 10 10z" fill="#99ebfa"/><path d="m246 236.001h20c5.523 0 10-4.477 10-10v-20c0-5.523-4.477-10-10-10h-20c-5.523 0-10 4.477-10 10v20c0 5.523 4.477 10 10 10z" fill="#99ebfa"/><path d="m305.999 236.001h20c5.523 0 10-4.477 10-10v-20c0-5.523-4.477-10-10-10h-20c-5.523 0-10 4.477-10 10v20c0 5.523 4.477 10 10 10z" fill="#99ebfa"/><path d="m66 296.001h20c5.523 0 10-4.477 10-10v-20c0-5.523-4.477-10-10-10h-20c-5.523 0-10 4.477-10 10v20c0 5.522 4.477 10 10 10z" fill="#99ebfa"/><path d="m126 296.001h20c5.523 0 10-4.477 10-10v-20c0-5.523-4.477-10-10-10h-20c-5.523 0-10 4.477-10 10v20c0 5.522 4.477 10 10 10z" fill="#99ebfa"/><path d="m186 296.001h20c5.523 0 10-4.477 10-10v-20c0-5.523-4.477-10-10-10h-20c-5.523 0-10 4.477-10 10v20c0 5.522 4.477 10 10 10z" fill="#99ebfa"/><path d="m246 296.001h20c5.523 0 10-4.477 10-10v-20c0-5.523-4.477-10-10-10h-20c-5.523 0-10 4.477-10 10v20c0 5.522 4.477 10 10 10z" fill="#99ebfa"/><path d="m305.999 296.001h20c5.523 0 10-4.477 10-10v-20c0-5.523-4.477-10-10-10h-20c-5.523 0-10 4.477-10 10v20c0 5.522 4.477 10 10 10z" fill="#99ebfa"/><path d="m365.999 296.001h20c5.523 0 10-4.477 10-10v-20c0-5.523-4.477-10-10-10h-20c-5.523 0-10 4.477-10 10v20c0 5.522 4.477 10 10 10z" fill="#99ebfa"/><path d="m425.999 296.001h20c5.523 0 10-4.477 10-10v-20c0-5.523-4.477-10-10-10h-20c-5.523 0-10 4.477-10 10v20c0 5.522 4.477 10 10 10z" fill="#99ebfa"/><path d="m66 356h20c5.523 0 10-4.477 10-10v-20c0-5.523-4.477-10-10-10h-20c-5.523 0-10 4.477-10 10v20c0 5.523 4.477 10 10 10z" fill="#99ebfa"/><path d="m126 356h20c5.523 0 10-4.477 10-10v-20c0-5.523-4.477-10-10-10h-20c-5.523 0-10 4.477-10 10v20c0 5.523 4.477 10 10 10z" fill="#99ebfa"/><path d="m186 356h20c5.523 0 10-4.477 10-10v-20c0-5.523-4.477-10-10-10h-20c-5.523 0-10 4.477-10 10v20c0 5.523 4.477 10 10 10z" fill="#99ebfa"/><path d="m246 356h20c5.523 0 10-4.477 10-10v-20c0-5.523-4.477-10-10-10h-20c-5.523 0-10 4.477-10 10v20c0 5.523 4.477 10 10 10z" fill="#99ebfa"/><path d="m305.999 356h20c5.523 0 10-4.477 10-10v-20c0-5.523-4.477-10-10-10h-20c-5.523 0-10 4.477-10 10v20c0 5.523 4.477 10 10 10z" fill="#99ebfa"/><path d="m365.999 356h20c5.523 0 10-4.477 10-10v-20c0-5.523-4.477-10-10-10h-20c-5.523 0-10 4.477-10 10v20c0 5.523 4.477 10 10 10z" fill="#99ebfa"/><path d="m425.999 356h20c5.523 0 10-4.477 10-10v-20c0-5.523-4.477-10-10-10h-20c-5.523 0-10 4.477-10 10v20c0 5.523 4.477 10 10 10z" fill="#99ebfa"/><path d="m66 416h20c5.523 0 10-4.477 10-10v-20c0-5.523-4.477-10-10-10h-20c-5.523 0-10 4.477-10 10v20c0 5.523 4.477 10 10 10z" fill="#99ebfa"/><path d="m126 416h20c5.523 0 10-4.477 10-10v-20c0-5.523-4.477-10-10-10h-20c-5.523 0-10 4.477-10 10v20c0 5.523 4.477 10 10 10z" fill="#99ebfa"/><path d="m186 416h140c5.523 0 10-4.477 10-10v-20c0-5.523-4.477-10-10-10h-140c-5.523 0-10 4.477-10 10v20c0 5.523 4.477 10 10 10z" fill="#66e0f7"/><path d="m365.999 416h20c5.523 0 10-4.477 10-10v-20c0-5.523-4.477-10-10-10h-20c-5.523 0-10 4.477-10 10v20c0 5.523 4.477 10 10 10z" fill="#99ebfa"/><path d="m425.999 416h20c5.523 0 10-4.477 10-10v-20c0-5.523-4.477-10-10-10h-20c-5.523 0-10 4.477-10 10v20c0 5.523 4.477 10 10 10z" fill="#99ebfa"/></g><g><path d="m445.999 216.001c-5.522 0-10.004-4.478-10.004-10s4.474-10 9.996-10h.008c5.522 0 10 4.478 10 10s-4.478 10-10 10z" fill="#9d9ae8"/></g><g><path d="m405.997 216.001c-5.522 0-10.004-4.478-10.004-10s4.475-10 9.997-10h.007c5.522 0 10 4.478 10 10s-4.477 10-10 10z" fill="#9d9ae8"/></g><g><path d="m365.996 216.001c-5.522 0-10.004-4.478-10.004-10s4.474-10 9.996-10h.008c5.522 0 10 4.478 10 10s-4.477 10-10 10z" fill="#9d9ae8"/></g></g><path d="m482 156h-186v-10c0-16.243-12.978-29.502-29.107-29.977 1.897-8.904 6.704-11.976 13.218-16.127 8.513-5.425 20.171-12.854 20.171-33.896 0-5.522-4.478-10-10-10s-10 4.478-10 10c0 10.07-3.422 12.251-10.919 17.029-8.573 5.463-19.913 12.693-22.715 32.971h-.648c-16.542 0-30 13.458-30 30v10h-186c-16.542 0-30 13.458-30 30v240c0 16.542 13.458 30 29.999 30h452.001c16.542 0 29.999-13.458 29.999-29.999v-240.001c0-16.542-13.457-30-29.999-30zm-246.001-10c0-5.514 4.486-10 10-10h20.001c5.514 0 10 4.486 10 10v10h-40.001zm256 280c0 5.514-4.485 9.999-9.999 9.999h-452.001c-5.514.001-9.999-4.485-9.999-9.999v-240c0-5.514 4.485-10 9.999-10h452.001c5.514 0 9.999 4.486 9.999 10z" fill="#8481e2"/></g></svg>